<?xml version="1.0" encoding="UTF-8"?>
<svg id="Layer_2" data-name="Layer 2" xmlns="http://www.w3.org/2000/svg" viewBox="0 0 810 869.23">
  <defs>
    <style>
      .cls-1 {
        fill: #c97b4f;
      }

      .cls-2 {
        opacity: .2;
      }
    </style>
  </defs>
  <g id="Layer_1-2" data-name="Layer 1">
    <g class="cls-2">
      <g>
        <path class="cls-1" d="M73.6,199.95l-.45-.76c-4.29-6.35-7.58-13.2-9.09-18.87-1.57-5.71-1.65-10.42,0-12.61,2.03-2.21,5.63-1.05,8.2,1.05l47.01,38.25c3.98,3.26,3.88,7.29,2.1,9.55l-2.68,3.4,3.09,2.37c4.07-5.13,7.98-10.39,12.39-15.24l6.42-7.43c2.23-2.4,4.52-4.74,6.77-7.12l-2.81-2.69-3.06,3.21c-1.99,2.08-5.91,2.7-9.7-.71l-47.25-42.72c-1.19-1.07-2.43-3.37-.78-5.07,.26-.27,.52-.54,.94-.66,2.52-1.4,7.39-1.92,13.21-1.31,2.91,.31,6.05,.89,9.27,1.78,1.61,.45,3.23,.95,4.86,1.56,1.65,.62,3.29,1.31,4.91,2.07l.82,.33,2.62-2.5c-7.92-6.99-15.88-13.93-23.89-20.83-17.96,17.69-34.42,36.89-49.15,57.35,8.01,6.9,16.05,13.74,24.13,20.52l2.1-2.95Z"/>
        <path class="cls-1" d="M222.05,43.03c3.31-1.5,7.65-.94,9.76,3.87l24.51,55.43c2.07,4.71,.18,8.08-2.54,9.3l-3.57,1.61,1.67,3.51,8.76-3.95,4.38-1.99,1.09-.5,1.12-.44,2.24-.88,8.94-3.52c1.49-.58,2.97-1.21,4.48-1.74l4.55-1.53-1.28-3.67-3.71,1.25c-1.43,.44-3.02,.5-4.52-.22-1.5-.71-2.88-2.16-3.8-4.57l-12.36-32.49,5.35,5.23c1.76,1.74,3.52,3.5,5.27,5.33,3.5,3.62,6.94,7.27,10.3,10.94l1.54,1.53c2.53,2.77,5.84,6.5,9.55,9.2,1.86,1.37,3.79,2.39,5.84,3.05,2.05,.66,4.16,.81,6.33,.2,3.51-1,6.39-2.56,8.76-4.79,2.39-2.18,4.31-4.85,5.83-8.4l.8-1.59-1.46-1.66c-.84,.55-1.71,.98-2.63,1.19-.89,.2-1.82,.25-2.8,.17-.49-.04-.99-.12-1.5-.22-.5-.08-1.01-.2-1.53-.34-2.08-.57-4.3-1.61-6.6-2.95-4.59-2.7-9.51-6.64-14.11-10.67-4.58-3.97-8.78-7.89-11.88-10.93-3.1-3.01-5.05-5.06-5.05-5.06-1.4-1.22-1.52-2.26-.54-4.89,1.55-4.27,3.18-8.56,4.87-12.87,.81-1.87,2.85-5.75,6.14-9.68,1.65-1.95,3.61-3.9,5.87-5.56,1.13-.83,2.34-1.59,3.62-2.24,1.27-.66,2.62-1.2,4.06-1.5l1.34-.31-.94-3.77c-3.08,.65-6.1,1.57-9.13,2.42l-9.09,2.58c-6.1,1.6-12.01,3.78-17.99,5.76l1.26,3.68,1.3-.44c3.2-1.08,6.85-.74,7.86,2.42,.91,2.83,.64,5.21-.83,8.85-1.81,4.17-3.54,8.32-5.21,12.45-.83,2.08-1.66,4.09-2.44,6.21l-2.27,6.33-9.11-23.94c-.92-2.4-.73-4.51,.13-6.18,.85-1.67,2.35-2.94,4.08-3.49l4.49-1.53-1.28-3.67-5.62,1.92c-1.86,.66-3.69,1.44-5.53,2.15l-11.03,4.38-2.76,1.1-1.38,.55-1.35,.61-5.4,2.45-10.8,4.92,1.67,3.51,4.32-1.96Z"/>
        <path class="cls-1" d="M436,30.86c3.16-6.98,7.26-13.24,11.31-17.7,2.03-2.27,4.02-3.89,5.86-5.03,1.84-1.12,3.51-1.68,4.88-1.53,2.95,.6,3.84,4.29,3.4,7.58l-7.91,60.09c-.69,5.1-4.17,7.08-7.02,6.71l-4.3-.55-.4,3.87,9.74,1.25,4.87,.61c1.62,.2,3.25,.38,4.85,.71l9.66,1.73,4.83,.85,1.21,.21,1.19,.28,2.39,.56,.82-3.8c-1.44-.32-2.87-.71-4.32-.97-2.83-.5-5.43-3.4-4.51-8.46l11.61-62.63c.29-1.58,1.59-3.78,3.92-3.36,.37,.07,.74,.13,1.06,.42,1.26,.68,2.66,1.89,4.04,3.74,1.37,1.83,2.75,4.15,4.01,6.81,2.52,5.33,4.55,12.05,5.36,19.1l.15,.86,3.53,.82c1.8-10.38,3.54-20.77,5.22-31.18C486.98,5.62,461.92,1.87,436.79,.07c-1.67,10.42-3.27,20.85-4.81,31.29l3.61,.27,.41-.77Z"/>
        <path class="cls-1" d="M515.15,45.42c3.27,.93,6,4.08,4.48,9.12l-9.45,31.76c-1.48,4.93-5.13,6.39-8,5.58l-3.76-1.07-1,3.76,9.24,2.63,4.62,1.31,4.55,1.55c6.05,2.08,12.18,3.97,18.08,6.47l1.41-3.63-3.64-1.44c-2.75-1.16-4.9-4.32-3.18-9.19l11.11-31.22c1.74-4.94,5.87-6.06,9.01-4.75l2.61,1.03,1.39-3.63c-13.32-5.16-26.95-9.49-40.73-13.23l-1,3.76,4.27,1.21Z"/>
        <path class="cls-1" d="M547.78,86.83c-.1,2.87,.05,5.62,.41,8.21,.18,1.3,.42,2.55,.7,3.78,.27,1.26,.59,2.48,.96,3.66,1.47,4.72,3.66,8.79,6.38,12.07,.68,.82,1.4,1.6,2.14,2.32,.37,.36,.75,.71,1.14,1.05,.38,.36,.76,.71,1.15,1.04,1.56,1.34,3.24,2.47,5.01,3.38,4.14,2.15,7.66,2.45,10.42,2.94,1.98,.22,3.68,.54,5.19,1.41,3.74,2.16,5.36,5.85,5.56,6.89l.09,.45,1.94,1.11,20.87-34.42c1.97-3.25,3.65-2.71,5.19-1.72l5.68,3.64,2.1-3.27c-2.99-1.9-5.96-3.86-8.98-5.72l-9.23-5.31-4.61-2.65-2.31-1.33c-.78-.42-1.58-.81-2.36-1.22l-9.48-4.85-1.74,3.47,3.86,1.98c2.86,1.46,4.88,5.2,2.43,9.72l-11.13,20.5c-2.77,5.13-5.92,6.22-10.5,3.88-4.54-2.31-6.44-6.59-6.01-13.12,.48-6.6,3.45-15.77,9.07-27.98l1.44-3.11c4.92-10.14,9.9-17.2,15.03-21.11,1.28-.98,2.57-1.76,3.86-2.34,1.28-.55,2.55-.89,3.83-1.04,2.56-.29,5.12,.21,7.65,1.51,3.39,1.74,5.88,4.31,7.66,7.27,1.74,3.04,2.74,6.5,3.3,9.87,1.11,6.75,.35,13.24-.11,16.21l-.2,.81,3.16,1.82c4.4-8.5,8.76-17.03,13.09-25.58l-2.4-1.38-.56,.21c-2.34,.76-4.62-.02-6.52-1.51-1.51-1.13-3.51-3.99-5.09-5.56-2.3-2.08-5.22-4.65-10.39-7.32-1.86-.95-3.92-1.77-6.14-2.42-1.11-.32-2.25-.61-3.42-.84-1.19-.19-2.42-.33-3.66-.42-4.98-.36-10.28,.12-15.38,1.69-5.08,1.51-10.08,4.38-14.39,8.47-4.32,4.09-7.98,9.46-10.67,16.27-2.61,6.59-3.82,12.86-4.03,18.61Z"/>
        <path class="cls-1" d="M644.58,83.49l-33.9,50.24c-2.89,4.26-6.84,4.59-9.35,2.98l-3.3-2.11-2.09,3.28c17.01,10.81,33.19,22.97,48.15,36.53l23.62-26.13-2.63-2.27-.78,.54c-4.69,3.35-11.33,7.51-18.03,9.76-3.36,1.13-6.71,1.75-9.91,1.58-3.26-.1-6.35-1.02-9.08-3.18l-.57-.45c-2.11-1.66-3.51-5.1-.36-9.31l17.62-23.38,4.54-6.03,14.32-19c3.15-4.21,7.2-3.36,10.05-1.13l.59,.46c2.72,2.14,4.59,4.78,5.79,7.66,.3,.72,.56,1.45,.78,2.21,.2,.77,.37,1.55,.5,2.33,.26,1.57,.38,3.17,.39,4.76,.05,6.38-1.68,12.67-3.31,17.09l-.26,.83,2.67,2.31c5.98-7.48,11.93-14.98,17.86-22.5-17.75-16.02-37-30.34-57.17-43.16l-2.08,3.28,3.99,2.56c3.05,1.96,4.92,5.89,1.97,10.24Z"/>
        <path class="cls-1" d="M705.04,132.76l-42.49,43.38c-3.61,3.67-7.45,3.17-9.61,1.11l-2.84-2.71-2.64,2.85,6.89,6.57c1.14,1.1,2.32,2.16,3.43,3.3l3.28,3.45,6.57,6.89,1.64,1.72,1.55,1.8,3.11,3.6,2.93-2.56-2.29-2.65c-.98-1.13-1.53-2.68-1.41-4.35,.1-1.65,.93-3.48,2.82-5.22l45.19-41.58c.25-.07,.42-.22,.59-.38l.34-.31c.25-.07,.42-.22,.68-.29,.34-.14,.5-.3,.76-.36,.34-.14,.59-.21,1.01-.26,2.14-.45,4.29,.46,5.92,2.35l1.88,2.16c4.19,4.82,4.65,12.71-3.74,19.62-8.92,7.33-17.1,5.75-21.23,.98l-3.25-3.75c-.3-.3-.62-.58-.94-.86l-.93,.85c-4.52,9.52-9.32,18.9-14.26,28.03l-.22,.61c-1.5,3.25-3.51,7.52-4.39,11.84-.92,4.36-.88,8.89,2.09,12.62,1.07,1.36,2.33,2.46,3.69,3.34,.68,.44,1.4,.82,2.11,1.18,.7,.36,1.41,.67,2.13,.94,2.89,1.06,5.9,1.41,8.33,1.27l1.51-.05,1.04-1.9c-1.91-1.45-2.63-3.96-2.59-7.17,.02-3.2,.68-7,1.8-11.19,1.11-4.17,2.62-8.67,4.19-13.06,1.59-4.35,3.14-8.61,4.48-12.28,.89,.73,1.8,1.37,2.63,2.01,.83,.64,1.65,1.23,2.45,1.77,1.6,1.07,3.15,1.94,4.64,2.64,2.98,1.39,5.72,2.06,8.21,2.24,4.98,.35,8.94-1.32,11.68-3.38,7.39-5.49,7.46-13.52,4.94-21.09-.63-1.89-1.41-3.74-2.27-5.51-.84-1.79-1.91-3.36-2.89-4.87-2-2.98-3.98-5.42-5.3-6.94-4.92-5.9-10.32-11.36-15.61-16.92l-3.98-4.16c-1.36-1.35-2.77-2.66-4.15-3.99l-8.33-7.94-2.64,2.85,3.43,3.27c2.63,2.5,3.73,6.73,.04,10.47Z"/>
        <path class="cls-1" d="M530.63,33.85c1.68,2.94,2.87,6.15,3.56,9.42l.1,.48,.31-.28c4.89-4.49,11.21-7.42,18.2-8.44,.18-.03,.35-.04,.52-.06l-.11-.12c-5.08-5.13-8.62-11.53-10.18-18.44l-.31,.27c-2.55,2.23-5.4,4.03-8.49,5.51-3.1,1.54-6.42,2.68-9.85,3.37l-.51,.1,.32,.29c2.58,2.36,4.75,5.02,6.45,7.9Z"/>
        <path class="cls-1" d="M176.38,67.5c.76-.49,1.61-.86,2.48-1.06,.89-.18,1.83-.19,2.74-.01,1.83,.36,3.6,1.52,4.94,3.79l8.19,13.8c1.29-5.61,1.99-11.42,2.03-17.3v-.82c2.67,1.58,5.41,2.99,8.2,4.24,2.84,1.31,5.73,2.46,8.66,3.44l-7.48-14.27c-2.45-4.65-.18-8.39,3.05-10.04l2.67-1.36-1.72-3.48-10.17,5.21-5.07,2.62-4.96,2.84c-6.59,3.82-13.28,7.47-19.62,11.7l2.08,3.29,3.99-2.55Z"/>
        <path class="cls-1" d="M246.69,115.08l-3.48,1.79c-2.65,1.36-6.52,.64-8.92-3.91l-7.45-14.21c-.66,2.71-1.14,5.44-1.42,8.2-.26,2.79-.3,5.66-.16,8.5l.04,.82-.79-.52c-4.73-3.12-9.85-5.56-15.26-7.27l8.22,13.85c1.31,2.21,1.6,4.23,1.24,5.86-.18,.82-.52,1.54-.98,2.16-.44,.65-.99,1.18-1.62,1.59l-3.3,2.12,2.08,3.29c10.79-6.93,22.07-13.03,33.52-18.78l-1.71-3.49Z"/>
        <path class="cls-1" d="M650.52,136.38l.32-.14c5.11-2.26,10.59-2.72,16-1.59l.4,.09-.05-.12c-2.1-5.35-2.63-11.32-1.71-16.91l-.31,.13c-5.18,2.11-10.83,2.77-16.26,1.9l-.4-.06,.14,.31c2.25,5.09,2.93,10.65,1.94,16l-.07,.39Z"/>
        <path class="cls-1" d="M127.67,106.07c.78,3.01,1.59,6.01,2.41,8.99,1.65,5.96,3.37,11.85,5.17,17.68,1.82,5.84,3.65,11.55,5.67,17.32,2.03,5.78,4.14,11.49,6.32,17.12,1.23,3.33,2.31,7.2,2.68,10.61,.38,3.42,0,6.33-1.52,8.01l-.78,.82,2.78,2.72,2.45-2.57,2.57-2.44,5.14-4.89c1.72-1.62,3.39-3.3,5.15-4.87l5.37-4.64-2.55-2.94-.78,.67c-2.56,2.24-5.46,2.71-8.45,1.91-4.43-1.3-8.19-5.62-9.56-9.2-.85-2.2-1.68-4.41-2.46-6.59l8.56-7.41,4.28-3.71c1.46-1.19,2.96-2.34,4.44-3.51,3.61,2.16,7.19,4.34,10.73,6.55,2.83,1.71,4.74,4.71,5.07,7.65,.19,1.59,.05,3.74-1.98,5.33l-.89,.7,2.46,3.02,7.69-6.03,3.84-3.03,3.98-2.83,7.96-5.66,1.99-1.42c.67-.46,1.37-.88,2.05-1.32l4.11-2.63-2.11-3.27-.87,.56c-2.26,1.45-3.91,1.82-6.92,.52-2.98-1.23-7.26-4.13-15.02-9.14-9.24-6.02-18.82-11.95-28.55-17.51-9.67-5.49-19.6-10.78-29.79-15.86l-2.88,2.27,1.08,4.49,1.16,4.53Zm32.24,30.49c-2.51,1.89-4.84,3.99-7.21,6.04l-7.11,6.16c-2.68-7.96-5.22-16.05-7.61-24.27,7.41,3.87,14.67,7.82,21.94,12.07Z"/>
        <path class="cls-1" d="M401.79,78.61c-2.69,.07-4.29-.46-6.12-3.13-1.85-2.67-3.9-7.48-7.75-15.97-1.14-2.53-2.3-5.12-3.47-7.6l-3.59-7.47c-2.43-4.98-4.95-9.94-7.55-14.91-2.6-4.96-5.28-9.92-8.04-14.87l-4.2-7.42c-1.42-2.45-2.86-4.84-4.31-7.26l-3.64,.46c-4.07,11.78-7.73,23.47-10.98,35.2-3.22,11.91-6.03,23.77-8.43,35.54-.38,1.72-.86,3.54-1.45,5.3-.58,1.77-1.26,3.45-2.01,5.05-1.51,3.15-3.35,5.55-5.55,6.06l-1.11,.26,.87,3.79,6.9-1.6,1.72-.4,1.75-.31,3.49-.62,6.97-1.25,3.49-.63,1.74-.32,1.76-.22-.57-3.85-1.02,.13c-3.36,.53-6.02-.44-8.11-2.76-3.04-3.52-3.88-9.18-3.1-12.92l1.48-6.89,5.57-.99,5.62-.71,11.23-1.43,2.78,5.58,2.72,5.7c1.47,2.99,1.46,6.54,.15,9.16-.7,1.4-1.97,3.17-4.52,3.51l-1.13,.15,.44,3.86,4.84-.62,4.87-.36,9.75-.74c3.24-.33,6.51-.31,9.77-.41l9.78-.25-.02-3.89-1.03,.03Zm-50.25-25.16c-3.11,.4-6.23,.74-9.31,1.36,2-8.33,4.24-16.38,6.66-24.54,4.17,7.31,8.16,14.64,11.98,21.99l-9.33,1.19Z"/>
        <path class="cls-1" d="M199.06,97.79l-.24,.41h.4c6.59-.23,12.98,1.51,18.42,4.98l.4,.25v-.41c-.07-1.63,0-3.25,.18-4.87,.18-1.62,.48-3.21,.94-4.72,.89-3.04,2.26-5.97,4.07-8.68l.27-.41h-.15c-3.39-.05-6.77-.58-10.04-1.56-1.65-.51-3.22-1.05-4.76-1.72-1.54-.67-3.05-1.45-4.5-2.35v.4c.04,6.63-1.68,13.11-4.98,18.67Z"/>
        <path class="cls-1" d="M48.53,257.46l.02,.48,.33-.23c5.41-3.72,11.59-5.72,18.2-5.55h.48s-.22-.33-.22-.33c-3.55-5.38-5.37-11.75-5.24-18.35v-.49s-.12,.08-.12,.08c-5.71,3.57-12.44,5.47-19.34,5.46l.21,.34c3.36,5.53,5.48,12.07,5.68,18.59Z"/>
        <path class="cls-1" d="M747.75,233.08v.4c.23,6.6-1.5,13-4.97,18.43l-.25,.4h.41c6.61-.27,12.81,1.65,18.27,5.28l.41,.27v-.15c.08-6.78,2.18-13.58,5.67-19.33h-.4c-6.64,.02-13.14-1.73-18.71-5.05l-.41-.25Z"/>
        <path class="cls-1" d="M62.25,645.28v-.15c-.29-6.85,1.53-13.49,5.22-19.08h-.4c-6.62,.27-12.82-1.64-18.28-5.28l-.4-.27v.4c-.12,6.53-2.14,13.09-5.42,18.67l-.25,.41h.41c6.63-.02,13.12,1.73,18.69,5.05l.42,.25Z"/>
        <path class="cls-1" d="M761.47,620.91l-.02-.49-.12,.09c-5.58,3.91-12.03,5.96-18.89,5.69l.21,.33c3.55,5.39,5.38,11.76,5.25,18.36v.49s.33-.21,.33-.21c5.53-3.4,12-5.25,18.64-5.32h.48s-.21-.35-.21-.35c-3.36-5.53-5.47-12.06-5.68-18.57Z"/>
        <path class="cls-1" d="M25.26,335.03l1.58-8.74c.54-2.92,1.17-5.82,1.7-8.76l1.84-8.78c.62-2.93,1.31-5.85,1.91-8.82-1.59,2.57-3.09,5.18-4.63,7.79l-4.3,7.99c-1.38,2.69-2.7,5.41-4.03,8.14-1.25,2.76-2.54,5.51-3.74,8.3-3.36,11.58-6.32,23.29-8.62,35.13C2.32,390.94,0,415.07,0,439.18c0,24.12,2.32,48.24,6.97,71.92,2.32,11.84,5.21,23.56,8.67,35.12,4.91,11.12,10.3,21.96,16.65,32.22-2.63-11.77-5.17-23.4-7.07-35.09-3.36-11.25-6.18-22.65-8.44-34.17-4.52-23.04-6.77-46.51-6.78-70,0-23.48,2.26-46.96,6.78-70,2.28-11.51,5.02-22.94,8.48-34.16Z"/>
        <path class="cls-1" d="M803.04,367.27c-2.32-11.84-5.21-23.56-8.67-35.12-4.91-11.12-10.3-21.96-16.65-32.22,2.63,11.77,5.17,23.4,7.07,35.09,3.36,11.25,6.18,22.66,8.44,34.17,4.52,23.04,6.77,46.51,6.78,70,0,23.48-2.26,46.96-6.78,70-2.28,11.51-5.02,22.94-8.48,34.16l-1.58,8.74c-.54,2.92-1.17,5.82-1.7,8.76l-1.84,8.78c-.62,2.93-1.31,5.85-1.91,8.82,1.59-2.57,3.09-5.18,4.63-7.79l4.3-7.98c1.38-2.69,2.7-5.41,4.03-8.14,1.25-2.76,2.54-5.51,3.74-8.3,3.36-11.58,6.32-23.29,8.62-35.13,4.64-23.67,6.96-47.8,6.96-71.92,0-24.12-2.32-48.24-6.96-71.92Z"/>
      </g>
      <g>
        <path class="cls-1" d="M182.1,286.17c.97,3.46,2.33,6.86,4.14,10.01,1.8,3.16,4.02,6.07,6.52,8.63,.62,.64,1.27,1.26,1.92,1.86l.98,.87c.26,.23,.52,.45,.78,.68,1.02,.92,1.98,1.86,2.89,2.85,1.79,1.98,3.34,4.13,4.54,6.48,1.21,2.35,2.09,4.93,2.66,7.71,.28,1.39,.51,2.83,.64,4.31,.16,1.48,.24,3,.31,4.55,.06,1.55,.1,3.14,.18,4.75,.1,1.61,.2,3.27,.61,4.87h.39c.45-1.53,1.02-2.99,1.58-4.48,.56-1.49,1.12-2.99,1.6-4.55,.49-1.56,.91-3.16,1.24-4.81,.31-1.65,.55-3.36,.63-5.1,.17-3.48-.25-7.12-1.34-10.6-1.09-3.49-2.84-6.77-4.98-9.66-1.08-1.44-2.25-2.8-3.49-4.07l-1.68-1.67c-.47-.49-.94-.98-1.38-1.49-1.78-2.03-3.27-4.24-4.45-6.6-2.37-4.71-3.44-10.06-3.56-15.63-.13-5.58,.64-11.36,1.9-17.11,1.28-5.76,3.02-11.52,5.02-17.23,1-2.86,2.08-5.7,3.21-8.54l.43-1.06,.21-.52,.2-.45,.39-.91,.42-.88c.14-.3,.29-.59,.44-.87,.15-.29,.3-.58,.45-.86,.33-.55,.63-1.12,.99-1.65,2.72-4.33,6.37-7.78,10.73-10.15,4.34-2.4,9.38-3.71,14.6-4.02,5.22-.31,10.61,.36,15.7,1.89,2.55,.76,5.01,1.75,7.33,2.92,2.33,1.16,4.49,2.55,6.4,4.09,1.92,1.54,3.56,3.26,4.8,5.04l2.81,3.93c.95,1.33,1.96,2.62,2.94,3.94,7.97,10.41,17.09,20.14,27.61,28.47,5.27,4.15,10.89,7.94,16.91,11.21,3.01,1.63,6.14,3.1,9.39,4.41,1.63,.65,3.29,1.26,5.02,1.81,.86,.27,1.75,.53,2.66,.77,.47,.12,.92,.24,1.42,.35,.24,.06,.49,.11,.76,.17l.42,.08,.58,.1h0s1.9,.24,1.9,.24l.83-.23c2.74-.77,5.5-1.42,8.27-2.05,2.77-.62,5.54-1.2,8.32-1.73,2.78-.54,5.57-1.03,8.35-1.53,2.79-.5,5.57-1.01,8.36-1.49,5.57-.98,11.15-1.94,16.74-2.86,5.07-.84,10.15-1.64,15.24-2.39l69.33,18.63,3.04,.82,2.94-1.63h0c2.75-1.55,5.42-3.09,8.11-4.66,2.68-1.57,5.37-3.13,8.04-4.72,5.34-3.18,10.66-6.39,15.96-9.64,5.29-3.28,10.56-6.57,15.8-9.95,5.25-3.35,10.46-6.8,15.64-10.32l3.87-2.68c1.29-.89,2.58-1.79,3.86-2.71l3.84-2.76c1.19-.86,2.34-1.69,3.54-2.49,2.38-1.6,4.81-3.09,7.3-4.44,2.48-1.36,5.01-2.59,7.57-3.64,5.12-2.11,10.41-3.51,15.56-3.83,5.14-.31,10.09,.49,14.46,2.61,4.39,2.08,8.22,5.49,11.35,9.77,1.56,2.14,2.97,4.48,4.22,6.95,.63,1.23,1.2,2.5,1.76,3.81,.56,1.34,1.11,2.69,1.62,4.05,2.04,5.43,3.58,10.98,4.39,16.55,.81,5.57,.87,11.17-.09,16.54-.95,5.37-2.89,10.51-5.84,15.1-1.47,2.3-3.17,4.46-5.08,6.46-.95,1-1.95,1.96-3,2.87-.53,.46-1.05,.89-1.61,1.35-.68,.58-1.38,1.13-2.03,1.77-1.31,1.23-2.52,2.62-3.57,4.13-1.06,1.5-1.96,3.12-2.65,4.83-1.4,3.4-1.95,7.03-1.93,10.45,0,1.72,.15,3.4,.36,5.03,.22,1.64,.52,3.23,.89,4.79,.75,3.13,1.8,6.08,2.95,9.01l.39-.06c.17-3.17,.06-6.29,.18-9.31,.05-1.51,.15-3,.36-4.46,.2-1.45,.52-2.87,.92-4.21,.41-1.35,.93-2.62,1.53-3.82,.6-1.19,1.3-2.29,2.05-3.33,.75-1.03,1.59-1.98,2.47-2.88,.22-.23,.43-.45,.67-.67,.23-.22,.45-.44,.69-.65,.24-.21,.49-.41,.72-.63,.23-.22,.5-.41,.74-.61,.48-.42,1.03-.79,1.54-1.19,.66-.49,1.35-1.01,2.01-1.54,1.33-1.06,2.61-2.19,3.84-3.38,2.46-2.38,4.71-5,6.68-7.83,3.96-5.66,6.78-12.18,8.21-18.94,1.46-6.76,1.62-13.68,.9-20.36-.72-6.7-2.32-13.17-4.42-19.38-.52-1.56-1.09-3.09-1.67-4.62-.61-1.55-1.25-3.13-1.98-4.67-1.42-3.1-3.12-6.13-5.11-9.04-2.01-2.9-4.33-5.68-7.03-8.16-2.68-2.49-5.76-4.68-9.09-6.4-3.33-1.73-6.92-2.97-10.57-3.7-3.64-.74-7.33-.99-10.93-.86-7.21,.28-14.05,2-20.41,4.43-3.18,1.22-6.26,2.62-9.23,4.16-2.97,1.55-5.84,3.24-8.62,5.05-1.39,.89-2.76,1.84-4.09,2.77l-3.73,2.58c-1.24,.87-2.5,1.71-3.77,2.56l-3.79,2.54c-10.2,6.68-20.58,13.21-31.09,19.56-5.24,3.19-10.51,6.35-15.8,9.48l-7.94,4.69-5.21,3.04-67.9-16.25h0s-1.52-.36-1.52-.36l-1.33,.24c-5.57,.99-11.16,1.9-16.75,2.77-5.59,.88-11.19,1.72-16.79,2.53-2.8,.42-5.6,.81-8.41,1.2-2.8,.39-5.6,.8-8.41,1.16-2.81,.36-5.62,.68-8.44,.96-2.08,.2-4.16,.39-6.26,.52h-.05c-.26-.08-.57-.17-.86-.25-.6-.18-1.22-.37-1.85-.59-1.26-.42-2.54-.91-3.81-1.44-2.55-1.07-5.08-2.33-7.58-3.7-4.99-2.75-9.8-6.02-14.36-9.66-4.57-3.64-8.93-7.6-13.06-11.86-4.13-4.25-8.02-8.77-11.72-13.47-.91-1.19-1.85-2.36-2.73-3.57l-2.7-3.69c-2.4-3.33-5.24-6.09-8.25-8.43-3.02-2.33-6.22-4.28-9.53-5.86-3.31-1.59-6.73-2.85-10.22-3.8-6.97-1.9-14.24-2.66-21.54-2-1.82,.16-3.64,.41-5.46,.76-1.81,.35-3.62,.78-5.4,1.33-1.78,.55-3.54,1.2-5.27,1.94-1.73,.76-3.41,1.62-5.04,2.59-1.64,.96-3.2,2.05-4.7,3.22-1.5,1.17-2.93,2.44-4.25,3.8-1.33,1.36-2.58,2.79-3.71,4.3-1.14,1.5-2.18,3.06-3.11,4.68-.48,.8-.9,1.62-1.33,2.44-.4,.83-.82,1.65-1.17,2.5l-.54,1.26-.49,1.27-.24,.64-.21,.58-.4,1.14c-1.06,3.04-2.08,6.11-3.03,9.22-1.9,6.21-3.55,12.56-4.66,19.12-1.11,6.55-1.73,13.34-1.24,20.3,.25,3.48,.81,6.99,1.78,10.45Z"/>
        <path class="cls-1" d="M235.94,258.33c-12.55-20.03-18.97,19.58-16.31,27.01,2.46,6.85,14.27,14.78,15.8,24.46,1.53,9.68-11.21,15.86,3.96,15.29,7.26-.27,2.19-3.27,20.24-21.91,10.7-11.05,32.22-11.23,30.84-21.26-2.02-14.71-39.75,0-54.53-23.59Z"/>
        <polygon class="cls-1" points="341.07 652.89 317.58 656.49 294.59 617.82 287.71 606.25 278.76 615.21 251.35 642.68 198.12 628.16 176.17 456.88 199.59 394.81 199.24 394.63 160.28 452.17 159.09 453.92 159.4 456.95 177.8 637.78 178.65 646.15 186.38 647.05 251.93 654.72 254.24 654.99 256.55 653.62 282.45 638.22 305.77 670.35 311.2 677.82 316.49 673.49 341.23 653.25 341.07 652.89"/>
        <polygon class="cls-1" points="649.72 452.17 610.76 394.63 610.41 394.81 633.83 456.88 611.88 628.16 558.65 642.68 531.24 615.21 522.29 606.25 515.41 617.82 492.42 656.49 468.93 652.89 468.77 653.25 493.51 673.49 498.8 677.82 504.23 670.35 527.55 638.22 553.45 653.62 555.76 654.99 558.07 654.72 623.62 647.05 631.35 646.15 632.2 637.78 650.6 456.95 650.91 453.92 649.72 452.17"/>
        <polygon class="cls-1" points="357.73 319.23 332.64 334.44 324.87 339.14 331.6 346.28 357.72 373.97 358.07 373.79 353.01 340.7 358.05 319.46 357.73 319.23"/>
        <polygon class="cls-1" points="321.94 360.44 311.16 339.54 309.28 331.35 308.9 331.25 299.91 341.83 297.22 344.98 301.39 347.67 321.65 360.71 321.94 360.44"/>
        <polygon class="cls-1" points="452.28 373.97 478.4 346.28 485.13 339.14 477.36 334.44 452.27 319.23 451.95 319.46 456.99 340.7 451.93 373.79 452.28 373.97"/>
        <polygon class="cls-1" points="512.78 344.98 510.09 341.83 501.1 331.25 500.72 331.35 498.84 339.54 488.06 360.44 488.35 360.71 508.61 347.67 512.78 344.98"/>
        <path class="cls-1" d="M282.56,388.94c-6.97,5.98-9.96,35.36-9.96,35.36,0,0,61.26,0,38.85-5.98-22.41-5.98-28.89-29.38-28.89-29.38Z"/>
        <path class="cls-1" d="M498.55,418.33c-22.41,5.98,38.85,5.98,38.85,5.98,0,0-2.99-29.38-9.96-35.36,0,0-6.47,23.41-28.89,29.38Z"/>
        <polygon class="cls-1" points="284.84 455.56 271.15 434.39 269.28 484.82 323.84 443.36 284.84 455.56"/>
        <polygon class="cls-1" points="538.85 434.39 525.16 455.56 486.16 443.36 540.72 484.82 538.85 434.39"/>
        <path class="cls-1" d="M288.8,553.37c.45,3.24,1.05,6.5,1.83,9.72,1.53,6.45,3.84,12.78,6.85,18.81,1.51,3.01,3.2,5.94,5.05,8.76,1.86,2.82,3.9,5.52,6.06,8.1,1.09,1.29,2.21,2.54,3.35,3.76,1.14,1.23,2.31,2.41,3.51,3.56,1.19,1.15,2.41,2.26,3.6,3.33,1.19,1.07,2.39,2.11,3.43,3.04l2.46,2.19,3.18-.18,.58-.03,.44-.03,.83-.08c.54-.06,1.07-.11,1.58-.18,.67-.08,1.32-.18,1.97-.29l20.77,40.93,1.96,3.85h4.68s90.68-.25,90.68-.25h4.72s1.85-3.97,1.85-3.97l18.79-40.16c.47,.07,.95,.14,1.43,.21,.51,.07,1.04,.13,1.58,.19l.84,.08,.45,.03,.59,.03,3.31,.19,2.56-2.27,3.42-3.04c1.2-1.07,2.4-2.19,3.59-3.36,1.19-1.16,2.36-2.36,3.49-3.6,1.14-1.23,2.25-2.5,3.33-3.8,2.14-2.61,4.16-5.34,5.99-8.17,1.83-2.84,3.5-5.78,5-8.8,2.98-6.04,5.27-12.38,6.82-18.82,.78-3.22,1.38-6.47,1.83-9.72,.45-3.25,.75-6.51,.87-9.78,.24-6.53-.11-13.05-1.1-19.44-.51-3.19-1.14-6.35-1.93-9.47-.78-3.11-1.69-6.19-2.76-9.19-1.06-3.01-2.25-5.96-3.55-8.86-1.3-2.89-2.75-5.71-4.28-8.46-1.53-2.76-3.2-5.43-4.97-8.02-1.76-2.59-3.66-5.09-5.68-7.47l-.32,.23c6.12,10.79,10.43,22.41,12.92,34.22,.64,3.12,1.16,6.25,1.53,9.38-3.31-.15-6.61-.2-9.91-.15-5.44,.08-10.85,.47-16.2,1.13-5.35,.67-10.64,1.64-15.82,2.91-1.3,.3-2.58,.66-3.87,1.01-1.29,.34-2.56,.73-3.82,1.12-1.27,.37-2.52,.82-3.77,1.25l-3.74,1.31,3.92-.54c1.3-.18,2.6-.37,3.91-.48,1.31-.13,2.6-.27,3.91-.34,1.3-.09,2.6-.18,3.91-.22,5.21-.22,10.4-.12,15.55,.26,5.14,.39,10.24,1.04,15.27,1.98,3.83,.71,7.63,1.57,11.38,2.57,.01,1.85-.02,3.7-.12,5.54-.16,2.95-.45,5.89-.87,8.79-.1,.67-.21,1.33-.32,1.99-5.09-.76-10.14-1.3-15.19-1.7-5.81-.46-11.59-.73-17.37-.83-5.77-.1-11.54-.06-17.28,.16-2.87,.1-5.75,.27-8.61,.48-2.86,.24-5.73,.49-8.55,.99,2.86,.03,5.7,.3,8.53,.58,2.83,.31,5.65,.66,8.46,1.08,5.62,.82,11.22,1.82,16.76,2.95,5.55,1.12,11.05,2.42,16.47,3.87,4.75,1.28,9.43,2.68,14,4.26-.33,1.06-.66,2.12-1.02,3.17-1.08,3.17-2.37,6.24-3.84,9.21-4.7,.23-9.41,.33-14.13,.29-6.69-.06-13.42-.42-20.1-1.03-6.67-.54-13.26-1.62-19.78-3.33-6.52-1.69-12.99-4.05-19.56-5.95,6.17,2.94,12.1,6.3,18.44,9.13,6.32,2.84,13,5.11,19.77,6.81,.85,.21,1.7,.45,2.54,.63l2.54,.56c1.69,.37,3.39,.71,5.1,1.05,3.41,.66,6.84,1.26,10.28,1.78,2.73,.41,5.47,.78,8.22,1.1-2.2,3.01-4.62,5.86-7.22,8.54-1.95,2.05-4.04,3.97-6.19,5.87-1.08,.95-2.19,1.89-3.33,2.85-.23,.2-.47,.39-.7,.59-.44-.07-.88-.14-1.33-.22-1.59-.29-3.21-.6-4.82-.98-3.24-.75-6.5-1.65-9.74-2.67-6.49-2.05-12.94-4.54-19.24-7.47-6.32-2.9-12.51-6.21-18.57-9.79-5.55-3.27-10.98-6.8-16.32-10.51l-1.95-26.65,15.53-11.55c1.71-1.27,1.91-3.76,.41-5.27-2.61-2.62-4.87-7.27,1.13-13.73,6.86-7.39,15.58-5.83,20.11-4.28,2.33,.8,4.89,.57,7.07-.58,3.33-1.76,7.53-4.54,7.68-7.46,0,0-6.85-15.69-19.54-14.57-9.89,.87-25.72,5.82-32.24,7.97-1.79,.59-3.71,.59-5.49,0-6.52-2.15-22.35-7.09-32.24-7.97-12.7-1.12-19.54,14.57-19.54,14.57,.15,2.92,4.36,5.71,7.68,7.46,2.18,1.15,4.73,1.38,7.07,.58,4.53-1.55,13.25-3.11,20.11,4.28,6,6.46,3.73,11.11,1.13,13.73-1.5,1.51-1.3,4,.41,5.27l15.53,11.55-1.94,26.56c-5.51,3.55-10.99,7.01-16.55,10.27-6.07,3.56-12.21,6.9-18.47,9.89-6.25,3.01-12.62,5.67-19.07,7.84-3.23,1.06-6.48,2.03-9.73,2.8-1.62,.39-3.24,.71-4.84,1.01-.49,.09-.98,.17-1.47,.25-.27-.23-.55-.46-.82-.69-1.14-.96-2.25-1.91-3.32-2.88-2.14-1.93-4.22-3.88-6.14-5.95-1.95-2.06-3.81-4.19-5.52-6.43-.57-.73-1.11-1.47-1.65-2.22,2.78-.32,5.55-.69,8.31-1.11,3.44-.52,6.87-1.11,10.28-1.78,1.7-.33,3.4-.68,5.1-1.05l2.54-.56c.84-.18,1.7-.42,2.54-.63,6.77-1.7,13.45-3.97,19.77-6.81,6.34-2.83,12.27-6.19,18.44-9.13-6.57,1.89-13.04,4.25-19.56,5.95-6.52,1.72-13.12,2.79-19.78,3.33-6.68,.6-13.41,.97-20.1,1.03-4.72,.04-9.44-.06-14.14-.29-.2-.41-.4-.81-.59-1.22-1.22-2.58-2.3-5.25-3.24-7.98-.36-1.05-.69-2.11-1.02-3.17,4.56-1.58,9.25-2.98,14-4.26,5.42-1.45,10.92-2.75,16.47-3.87,5.55-1.13,11.14-2.12,16.76-2.95,2.81-.42,5.63-.77,8.46-1.08,2.83-.28,5.67-.56,8.53-.58-2.82-.5-5.68-.74-8.55-.99-2.86-.21-5.74-.38-8.61-.48-5.75-.22-11.51-.26-17.28-.16-5.78,.1-11.56,.37-17.37,.83-5.04,.4-10.1,.94-15.19,1.7-.11-.66-.22-1.33-.32-1.99-.42-2.91-.71-5.84-.87-8.79-.1-1.84-.13-3.69-.12-5.54,3.75-.99,7.54-1.85,11.38-2.57,5.03-.94,10.13-1.59,15.27-1.98,5.14-.38,10.34-.48,15.55-.26,1.31,.04,2.61,.13,3.91,.22,1.31,.07,2.61,.21,3.91,.34,1.31,.11,2.61,.3,3.91,.48l3.92,.54-3.74-1.31c-1.25-.44-2.5-.89-3.77-1.25-1.27-.39-2.54-.79-3.82-1.12-1.28-.35-2.57-.71-3.87-1.01-5.18-1.27-10.47-2.24-15.82-2.91-5.35-.67-10.76-1.06-16.2-1.13-3.3-.05-6.6,0-9.91,.15,.38-3.13,.89-6.26,1.53-9.38,2.49-11.82,6.8-23.43,12.92-34.22l-.32-.23c-2.02,2.37-3.91,4.87-5.68,7.47-1.77,2.59-3.44,5.26-4.97,8.02-1.54,2.75-2.98,5.57-4.28,8.46-1.3,2.89-2.49,5.85-3.55,8.86-1.07,3.01-1.98,6.08-2.76,9.19-.79,3.11-1.42,6.27-1.93,9.47-.99,6.39-1.34,12.91-1.1,19.44,.12,3.26,.42,6.53,.87,9.78Zm62.74,55.71c7.26-2.58,14.23-5.74,20.86-9.43,6.64-3.67,12.94-7.84,18.9-12.41,4.85-3.72,9.47-7.69,13.81-11.93,4.41,4.07,9.02,7.94,13.82,11.61l2.24,1.7,2.29,1.64c1.52,1.11,3.08,2.15,4.64,3.21,3.14,2.08,6.34,4.08,9.64,5.95,3.28,1.89,6.66,3.65,10.1,5.29,3.44,1.65,6.97,3.16,10.59,4.5,2.48,.92,5,1.76,7.57,2.51l-18.6,31.79-82.28-.22-20.66-31.94c2.4-.69,4.77-1.44,7.1-2.27Z"/>
        <path class="cls-1" d="M559.63,315.34c9.96,13.94,19.42,27.39,19.42,27.39,0,0,1.49-17.43,9.46-39.84,7.97-22.41,15.44-25.4,11.95-35.86-3.49-10.46-11.95,8.47-31.38,7.47-19.42-1-37.35,10.96-37.35,10.96,0,0,4.66,22.07,12.95,22.41,0,0,4.98-6.47,14.94,7.47Z"/>
        <polygon class="cls-1" points="601.14 501.7 599.77 497.46 585.31 452.86 588.66 381.45 588.82 378.08 586.74 376.19 524.11 319.21 523.82 319.48 574.16 383.36 570.25 453.43 570.21 454.12 570.45 455.58 577.39 498.1 549.05 550.66 546.15 556.03 548.88 559.14 573.84 587.63 574.19 587.44 565.63 556.7 598.53 505.74 601.14 501.7"/>
        <path class="cls-1" d="M301.57,382.9c1,5.92,3.83,15.57,11.77,18.27,11.7,3.98,14.83-.89,20.56,1.85s-3.98,14.69,2.49,16.19c0,0,14.44-16.68,14.19-22.66-.25-5.98-11.21-24.65-26.89-26.15-2.46-.23-4.7-.2-6.74,.01h0s-.02,0-.02,0c-.6,.06-1.18,.15-1.75,.24l-37.73,5.25,24.12,7Z"/>
        <path class="cls-1" d="M459.42,396.54c-.25,5.98,14.19,22.66,14.19,22.66,6.47-1.49-3.24-13.45,2.49-16.19s8.86,2.14,20.56-1.85c7.94-2.7,10.77-12.34,11.77-18.27l24.12-7-37.73-5.25c-.57-.09-1.14-.18-1.75-.24h-.02s0,0,0,0c-2.04-.22-4.28-.24-6.74-.01-15.69,1.49-26.64,20.17-26.89,26.15Z"/>
        <path class="cls-1" d="M456.26,295.69l-14.55-6.08c-4.85-2.02-9.69-4.09-14.46-6.37l-2.37-1.13-2.84,1.92-17.15,11.61-17.32-11.08-2.48-1.59-2.16,.88-58.35,23.81,.12,.37,58.6-13.4,18.11,13.65,3.48,2.63,3.68-2.63,18.35-13.1c4.1,.75,8.16,1.62,12.21,2.51l15.4,3.39,15.38,3.44,15.36,3.51,.12-.37-14.59-5.96-14.56-6.03Z"/>
        <path class="cls-1" d="M483.04,699.78c-1.16-.18-2.32-.33-3.48-.48-4.65-.5-9.34-.62-14.03-.42-9.37,.46-18.76,2.3-27.76,5.66-4.49,1.69-8.88,3.79-13.05,6.38-4.16,2.58-8.09,5.69-11.51,9.4l-1.26,1.41c-.42,.46-.8,.99-1.19,1.48-.38,.51-.78,.99-1.14,1.52l-1.06,1.6c-.17,.27-.35,.53-.51,.8l-.47,.84-.91,1.69c-.27,.59-.53,1.18-.78,1.77l-.37,.88-.31,.92c-.07,.21-.13,.42-.2,.63-.07-.21-.13-.42-.2-.63l-.31-.92-.37-.88c-.26-.58-.51-1.18-.78-1.77l-.91-1.69-.47-.84c-.17-.27-.34-.54-.51-.8l-1.06-1.6c-.36-.53-.76-1.01-1.14-1.52-.39-.49-.77-1.03-1.19-1.48l-1.26-1.41c-3.42-3.71-7.35-6.82-11.51-9.4-4.16-2.59-8.55-4.69-13.05-6.38-9-3.36-18.39-5.19-27.76-5.66-4.69-.21-9.38-.08-14.03,.42-1.16,.14-2.32,.3-3.48,.48-1.15,.16-2.31,.38-3.46,.62-2.29,.44-4.57,1.05-6.82,1.78v.39c2.24,.8,4.46,1.4,6.66,2.07,.55,.16,1.1,.32,1.64,.47,.55,.14,1.09,.31,1.64,.47,1.09,.33,2.17,.63,3.25,.92,4.31,1.24,8.56,2.44,12.74,3.67,4.19,1.22,8.3,2.52,12.35,3.86,4.05,1.35,8.04,2.76,11.94,4.31,3.89,1.56,7.69,3.22,11.37,5.04,3.68,1.82,7.24,3.78,10.57,6.01l1.25,.84c.22,.14,.41,.29,.61,.44l.6,.44c.4,.3,.82,.59,1.21,.89l1.16,.94c.2,.16,.4,.31,.59,.47l.55,.5,1.14,.99,1.07,1.05,.55,.53,.5,.56,1.03,1.13,.95,1.2c.16,.2,.35,.4,.49,.61l.44,.64,.44,.65c.15,.22,.32,.44,.44,.67,1.13,1.81,2.05,3.81,2.95,6.03h.39c.9-2.23,1.82-4.22,2.95-6.03,.12-.23,.29-.45,.44-.67l.44-.65,.44-.64c.14-.21,.33-.41,.49-.61l.95-1.2,1.03-1.13,.5-.56,.55-.53,1.07-1.05,1.14-.99,.55-.5c.19-.16,.4-.31,.59-.47l1.16-.94c.39-.31,.81-.6,1.21-.89l.6-.44c.2-.15,.4-.3,.61-.44l1.25-.84c3.33-2.24,6.89-4.19,10.57-6.01,3.68-1.81,7.48-3.48,11.37-5.04,3.9-1.54,7.88-2.96,11.94-4.31,4.05-1.34,8.17-2.64,12.35-3.86,4.18-1.23,8.43-2.42,12.74-3.67,1.08-.29,2.16-.59,3.25-.92,.54-.16,1.09-.33,1.64-.47,.55-.15,1.09-.32,1.64-.47,2.2-.67,4.41-1.26,6.66-2.07v-.39c-2.25-.73-4.53-1.34-6.82-1.78-1.15-.24-2.3-.46-3.46-.62Z"/>
        <polygon class="cls-1" points="253.4 376.99 228.73 491.13 227.67 496.05 231.03 498.43 265.69 522.98 265.98 522.71 246.62 490.44 253.79 377.04 253.4 376.99"/>
        <polygon class="cls-1" points="225.52 593.4 237.44 582.4 270.27 552.1 270.07 551.76 237.49 562.64 216.28 518.9 215.9 519.01 223.38 576.89 225.52 593.4"/>
        <path class="cls-1" d="M212.71,371.72l-.06,2.97c-.16,7.25-.3,14.49-.52,21.73-.18,7.24-.42,14.48-.65,21.72l-.35,10.85-.41,10.85c-.29,7.23-.61,14.45-1.02,21.67l.39,.05c1.45-7.08,2.98-14.15,4.54-21.21l2.37-10.59,2.42-10.59c1.62-7.06,3.24-14.11,4.9-21.16,1.45-6.22,2.94-12.43,4.44-18.65l37.35-50.17-.28-.27-50.9,41.01-2.22,1.79Z"/>
      </g>
      <g>
        <polygon class="cls-1" points="419.47 153.1 410.71 220.07 399.29 220.07 390.53 153.1 419.47 153.1"/>
        <polygon class="cls-1" points="480.32 177.13 438.02 224.73 431.98 220.43 462.98 164.82 480.32 177.13"/>
        <polygon class="cls-1" points="347.02 164.82 378.02 220.43 371.98 224.73 329.68 177.13 347.02 164.82"/>
      </g>
    </g>
    <g class="cls-2">
      <g>
        <path class="cls-1" d="M53.33,698.53l2.49-2.32,.75,.8c.77,.83,1.82,1.38,3.13,1.66,1.31,.28,2.75,.38,4.31,.29s3.17-.32,4.83-.68c1.66-.37,3.23-.79,4.71-1.25l60.37-21.21,1.98,2.12-24.05,53.37c-1.64,3.72-2.92,6.72-3.85,9-.93,2.28-1.55,4.13-1.85,5.56-.31,1.43-.29,2.6,.06,3.5,.35,.91,.95,1.82,1.82,2.75l.68,.73-2.49,2.32-26.14-27.99,2.48-2.32,.75,.8c.86,.93,1.75,1.46,2.67,1.61,.91,.15,1.73,.17,2.44,.05,1.33-.24,2.56-.8,3.7-1.68,1.14-.88,2.01-1.97,2.62-3.27l4.8-9.95-14.06-15.06-5.8,2.14c-1.58,.56-3.17,1.61-4.78,3.16-1.61,1.55-2.66,3.33-3.15,5.34-.62,2.86,.17,5.45,2.35,7.79l.68,.73-2.49,2.32-18.97-20.32Zm36.6-2.71l11.53,12.35,9.45-19.77-20.98,7.42Z"/>
        <path class="cls-1" d="M117.31,759.5c1.18,.87,2.57,1.26,4.18,1.17,1.61-.1,3.08-1.05,4.43-2.88l31.61-42.67c1.39-1.87,1.89-3.59,1.52-5.16-.38-1.56-1.15-2.78-2.33-3.66l-3.05-2.26,2.02-2.73,29.41,21.79c.86,.63,1.96,1.53,3.3,2.69,1.34,1.16,2.69,2.49,4.06,4.01,1.37,1.51,2.64,3.18,3.82,5.01,1.18,1.83,2.05,3.76,2.61,5.79,.56,2.04,.7,4.12,.4,6.27-.3,2.14-1.25,4.29-2.83,6.43-.87,1.18-2.04,2.31-3.5,3.38-1.46,1.08-3.24,1.85-5.34,2.33-2.1,.48-4.55,.51-7.35,.09-2.8-.42-6-1.5-9.6-3.25-.35,3.39-.72,7.18-1.09,11.39s-.49,8.25-.34,12.13c.15,3.89,.67,7.28,1.55,10.17,.88,2.89,2.39,4.76,4.51,5.58l-.29,1.9-1.3,.41c-2.09,.69-4.68,.97-7.78,.84-3.09-.14-6.01-1.21-8.74-3.24-1.88-1.39-3.23-3.03-4.06-4.94-.83-1.9-1.33-3.87-1.48-5.89-.16-2.03-.09-4.03,.21-6,.3-1.97,.57-3.74,.82-5.3l.06-.58,6.82-26.68,.66-.88,.94,.57,3.46,2.56c1.12,.83,2.38,1.41,3.76,1.73,1.38,.32,2.86,.31,4.43-.02,1.57-.33,3.16-1.04,4.76-2.14,1.6-1.1,3.15-2.66,4.66-4.7,1.43-1.93,2.41-3.75,2.94-5.48,.53-1.72,.76-3.32,.68-4.78-.08-1.47-.45-2.78-1.12-3.94-.67-1.16-1.52-2.12-2.54-2.88l-1.85-1.37c-1.71-1.27-3.44-1.51-5.18-.73-.32,.1-.59,.23-.8,.4-.13,.07-.23,.14-.29,.22-.06,.08-.16,.15-.29,.22-.13,.07-.22,.13-.26,.18-.04,.05-.13,.11-.26,.18l-.24,.32c-.16,.21-.31,.35-.44,.42l-31.97,43.15c-1.35,1.82-1.84,3.51-1.46,5.08,.38,1.56,1.15,2.78,2.33,3.66l2.73,2.02-2.02,2.73-29.97-22.2,2.02-2.73,3.05,2.26Z"/>
        <path class="cls-1" d="M211.3,742.11l53.68,27.02-10.53,25.6-2.77-1.39,.05-.76c.37-3.1,.51-6.13,.43-9.08-.08-2.95-.32-5.67-.72-8.14-.4-2.48-.93-4.61-1.59-6.4-.67-1.79-1.42-3.12-2.25-3.99-.12-.21-.36-.4-.71-.58-.83-.42-1.61-.36-2.33,.17s-1.24,1.13-1.57,1.78l-25.04,49.75c-1.02,2.02-1.22,3.79-.6,5.3,.62,1.51,1.56,2.58,2.81,3.21l3.84,1.93-1.53,3.04-34.39-17.31,1.53-3.04,3.75,1.89c1.25,.63,2.68,.75,4.29,.37,1.61-.38,2.93-1.59,3.95-3.61l23.83-47.34c.66-1.31,1.02-2.66,1.08-4.04,.06-1.39-.41-2.41-1.42-3.07-.95-.48-2.35-.49-4.18-.03-1.84,.46-3.87,1.28-6.11,2.47-2.24,1.19-4.61,2.72-7.12,4.59-2.51,1.87-4.98,3.95-7.4,6.24l-.58,.49-2.77-1.39,14.38-23.66Z"/>
        <path class="cls-1" d="M302.2,810.51c-1.67-4.93-2.08-9.38-1.22-13.35,.53-2.48,1.54-4.66,3.04-6.56,1.5-1.89,3.36-3.4,5.58-4.53,2.22-1.12,4.72-1.83,7.51-2.12,2.79-.29,5.71-.1,8.78,.55,2.93,.63,5.39,1.5,7.37,2.6,1.98,1.11,3.54,2.34,4.67,3.71,1.14,1.37,1.89,2.79,2.25,4.27,.36,1.48,.39,2.93,.08,4.37-.41,1.89-1.31,3.57-2.72,5.04-1.41,1.47-3,2.77-4.77,3.89-1.78,1.12-3.56,2.07-5.37,2.84-1.8,.77-3.33,1.4-4.6,1.88l8.4,20.93,3.46-3.25c1.03-1.01,1.63-2.12,1.79-3.35,.16-1.23,.1-2.31-.17-3.26-.54-1.96-1.58-3.1-3.15-3.44l-3.42-.73,.76-3.52,27.18,5.83-.78,3.62-1.56-.34c-1.37-.29-2.9-.09-4.58,.6-1.68,.7-3.42,1.64-5.21,2.82-1.79,1.19-3.56,2.53-5.31,4.02-1.75,1.5-3.35,2.88-4.78,4.14-.73,.53-1.47,1.15-2.24,1.87l.4,1.01c.53,1.34,1.2,3,2,4.98,.8,1.98,1.76,3.86,2.88,5.63,1.12,1.77,2.4,3.28,3.84,4.51,1.44,1.23,3.09,1.81,4.95,1.73l.6,1.97-1.94,1.42c-.9,.69-1.99,1.26-3.28,1.7-1.29,.44-2.62,.77-4,.98-1.38,.22-2.74,.31-4.1,.3-1.36-.02-2.59-.15-3.7-.39-1.96-.42-3.62-1-5-1.74-1.38-.74-2.55-1.6-3.53-2.6-.98-.99-1.82-2.09-2.51-3.3-.7-1.21-1.34-2.49-1.94-3.84-.41,.32-.99,.64-1.74,.96-2.93,1.56-6.08,2.65-9.45,3.29-3.38,.64-6.73,.6-10.05-.11-3.19-.69-6.05-1.83-8.57-3.43-2.52-1.6-4.6-3.53-6.22-5.79-1.63-2.26-2.75-4.73-3.37-7.42-.62-2.69-.62-5.47,0-8.34,.7-3.26,1.96-6.02,3.77-8.29,1.82-2.27,3.88-4.18,6.19-5.73,2.31-1.55,4.69-2.79,7.14-3.73,2.45-.94,4.66-1.71,6.63-2.31Zm-6.21,14.62c-.39,1.83-.43,3.93-.13,6.31,.31,2.38,.94,4.69,1.89,6.9,.96,2.22,2.21,4.17,3.75,5.87,1.54,1.7,3.36,2.77,5.45,3.21,2.02,.43,3.78,.49,5.28,.16,1.5-.32,2.67-.67,3.5-1.04l-12.04-31.12c-1.32,.74-2.8,1.91-4.43,3.5-1.64,1.59-2.73,3.66-3.27,6.2Zm24.95-16.64c1.89-1.16,3.54-2.89,4.95-5.18,1.41-2.29,2.35-4.51,2.81-6.66,.08-.39,.15-.95,.21-1.69,.06-.74,0-1.5-.17-2.29-.17-.79-.56-1.52-1.17-2.19-.61-.67-1.49-1.14-2.67-1.39-.98-.21-1.82-.19-2.52,.07-.7,.26-1.3,.64-1.78,1.15-.49,.51-.87,1.09-1.14,1.75-.28,.66-.51,1.24-.68,1.75l-.15,.68c-.32,1.5-.23,3.62,.27,6.35,.5,2.73,1.18,5.28,2.04,7.65Z"/>
        <path class="cls-1" d="M389.09,799.7l-.16-3.4,37.36-1.71c.86-.04,2.25,0,4.16,.11,1.91,.11,4.06,.5,6.46,1.16,2.4,.66,4.87,1.68,7.4,3.06,2.53,1.39,4.89,3.38,7.08,5.98,2.19,2.6,4.02,5.87,5.5,9.81s2.35,8.77,2.62,14.5c.23,5.06-.2,9.54-1.29,13.42-1.09,3.89-2.56,7.24-4.39,10.06-1.84,2.82-3.92,5.17-6.24,7.04-2.32,1.88-4.62,3.38-6.9,4.52-2.29,1.14-4.42,1.95-6.4,2.44-1.98,.49-3.54,.76-4.67,.81l-37.36,1.71-.16-3.4,3.8-.17c1.46-.07,2.79-.66,3.97-1.78,1.18-1.12,1.72-2.81,1.62-5.08l-2.42-52.94c-.11-2.33-.8-3.98-2.08-4.96-1.28-.98-2.65-1.43-4.12-1.36l-3.8,.17Zm36.87,64.18l1.9-.09c1.8-.08,3.51-.86,5.15-2.34,1.63-1.48,3.05-3.64,4.26-6.5,1.2-2.86,2.11-6.37,2.72-10.54,.61-4.17,.79-8.95,.54-14.34-.25-5.53-.89-10.3-1.91-14.33-1.02-4.02-2.27-7.34-3.76-9.94-1.49-2.6-3.09-4.5-4.81-5.69-1.72-1.19-3.45-1.74-5.18-1.67l-1.9,.09c-1.47,.07-2.79,.58-3.98,1.53-1.19,.96-1.73,2.6-1.63,4.93l2.42,52.94c.1,2.26,.79,3.83,2.07,4.71,1.27,.88,2.64,1.28,4.11,1.21Z"/>
        <path class="cls-1" d="M472.47,860.66l3.71-.83c1.43-.32,2.63-1.13,3.6-2.44,.97-1.31,1.21-3.07,.72-5.28l-11.53-51.73c-.51-2.28-1.48-3.79-2.9-4.53-1.43-.74-2.86-.95-4.29-.63l-3.71,.83-.74-3.32,55.63-12.4,6.83,24.19-2.93,.65-.44-.62c-1.14-1.73-2.55-3.62-4.23-5.66-1.69-2.05-3.59-3.91-5.7-5.59-2.12-1.68-4.4-2.98-6.86-3.9-2.46-.92-5.05-1.08-7.79-.47l-.58,.13c-1.43,.32-2.65,1.05-3.66,2.2-1.01,1.15-1.26,2.86-.75,5.14l4.52,20.3c.03,.13,.22,.31,.58,.54,.36,.23,.73,.3,1.12,.21l4.49-1c1.5-.33,2.94-.89,4.34-1.68,1.39-.79,2.6-1.74,3.62-2.85,1.01-1.11,1.77-2.32,2.26-3.63,.49-1.3,.58-2.67,.26-4.11l-.52-2.34,3.32-.74,6.26,28.11-3.32,.74-.54-2.44c-.28-1.24-.88-2.35-1.82-3.33-.94-.99-2.09-1.79-3.46-2.41-1.37-.62-2.87-1.01-4.52-1.2-1.65-.18-3.31-.08-5.01,.3l-4.39,.98c-.39,.09-.7,.29-.94,.62-.23,.33-.34,.55-.31,.68l5.57,24.99c.51,2.28,1.46,3.72,2.86,4.33,1.4,.61,2.75,.77,4.05,.48l.68-.15c3.32-.74,5.97-2.25,7.95-4.54,1.98-2.29,3.53-4.92,4.64-7.9,1.11-2.98,1.84-6.06,2.19-9.25,.35-3.18,.55-6.05,.6-8.59l.02-.82,3.03-.67,6.7,30.06-57.88,12.9-.74-3.32Z"/>
        <path class="cls-1" d="M541.73,767.85c2.16-.87,4.11-1.48,5.84-1.82,1.73-.34,3.31-.62,4.73-.83,.94-.16,1.93-.29,2.97-.39,1.04-.1,1.94-.26,2.71-.5,.95-.31,1.65-.67,2.1-1.07,.45-.4,.85-1.06,1.19-1.99l3.52-1.42,11.07,23.68-2.87,1.16-.45-.57c-1.49-1.55-3.35-3.25-5.56-5.09-2.22-1.84-4.61-3.44-7.18-4.81-2.57-1.37-5.22-2.33-7.96-2.88-2.74-.55-5.37-.31-7.91,.71-3.34,1.35-5.41,3.16-6.22,5.43-.81,2.27-.81,4.39-.01,6.37,1.4,3.46,4.41,5.41,9.04,5.84l21.53,1.76c1.1,.06,2.55,.3,4.34,.73,1.79,.43,3.67,1.18,5.65,2.25,1.98,1.07,3.9,2.58,5.76,4.52,1.86,1.94,3.42,4.46,4.67,7.55,1.35,3.34,1.83,6.58,1.44,9.72-.39,3.14-1.39,6.04-3.01,8.71-1.62,2.67-3.7,5.04-6.24,7.11-2.54,2.07-5.3,3.7-8.26,4.9-2.29,.92-4.39,1.56-6.3,1.9-1.91,.34-3.7,.59-5.35,.76-1.18,.12-2.29,.26-3.33,.43-1.05,.17-2.06,.46-3.05,.86-1.79,.72-2.96,1.54-3.49,2.44-.54,.9-.92,1.68-1.15,2.35l-.13,.48-2.41,.97-11.72-29.02,2.78-1.12,.54,.54c2.12,2.59,4.54,5,7.23,7.22,2.69,2.22,5.49,4.07,8.39,5.56,2.9,1.49,5.78,2.47,8.63,2.93,2.85,.47,5.45,.23,7.8-.72,3.28-1.32,5.44-3.22,6.49-5.7,1.05-2.47,.93-5.32-.37-8.53-1.92-4.76-5.81-7.36-11.67-7.8l-21.88-1.84c-1.28-.13-2.72-.46-4.34-1-1.62-.53-3.25-1.31-4.88-2.34-1.64-1.03-3.19-2.33-4.65-3.89-1.46-1.57-2.63-3.43-3.5-5.6-.95-2.35-1.38-4.84-1.29-7.46,.09-2.62,.74-5.19,1.96-7.69,1.22-2.5,3.04-4.88,5.48-7.12,2.44-2.24,5.54-4.13,9.31-5.65Z"/>
        <path class="cls-1" d="M603.56,821.95l-1.65-2.98,3.33-1.84c1.28-.71,2.21-1.83,2.77-3.36,.56-1.53,.3-3.29-.8-5.27l-25.66-46.38c-1.13-2.04-2.48-3.22-4.06-3.52-1.58-.31-3.01-.11-4.29,.6l-3.33,1.84-1.65-2.98,31.76-17.57,1.65,2.98-2.1,1.16c-1.28,.71-2.21,1.82-2.79,3.32-.58,1.5-.3,3.27,.83,5.31l25.66,46.38c1.1,1.98,2.44,3.14,4.04,3.48,1.59,.34,3.03,.15,4.32-.56l3.33-1.84,1.65,2.98-32.99,18.25Z"/>
        <path class="cls-1" d="M628.67,718.66c1.86-1.4,3.52-2.44,4.98-3.12,1.45-.67,2.76-1.24,3.92-1.69,.85-.31,1.86-.6,3.02-.89,1.16-.29,2.07-.6,2.74-.93,.83-.45,1.53-1.04,2.11-1.77,.58-.73,.89-1.61,.95-2.65v-.5l1.76-1.32,16.36,19.1-2.48,1.86-.58-.44c-1.09-.68-2.8-1.62-5.13-2.83-2.33-1.21-4.88-2.21-7.64-3.01-2.77-.8-5.63-1.17-8.59-1.11-2.96,.06-5.67,1.01-8.12,2.85-7.35,5.53-5.24,16.33,6.33,32.39l1.8,2.4c7.09,9.43,13.08,15.6,17.98,18.51,4.9,2.91,9.34,2.86,13.34-.14,2.02-1.52,3.15-3.08,3.38-4.66,.22-1.59-.42-3.39-1.95-5.42l-12.18-16.37c-1.36-1.81-2.87-2.76-4.52-2.86-1.65-.09-3.04,.28-4.16,1.12l-3.04,2.28-2.04-2.72,29.5-22.17,2.04,2.72-4.72,3.55c-.64,.48-1.09,1.07-1.36,1.77-.27,.7,.1,1.72,1.1,3.05l21.15,28.14-1.76,1.32-.42-.06c-.47-.07-1.52,.04-3.15,.3-1.63,.27-3.3,1.04-5.01,2.33-.69,.52-1.29,1.12-1.79,1.78-.5,.67-1.02,1.42-1.57,2.24-.83,1.12-1.76,2.34-2.81,3.67-1.05,1.33-2.5,2.69-4.37,4.09-3.14,2.36-6.76,4.04-10.85,5.03-4.09,.99-8.33,1.13-12.7,.41-4.38-.71-8.75-2.41-13.14-5.08-4.38-2.67-8.44-6.48-12.16-11.44-3.85-5.12-6.3-10.21-7.37-15.29s-1.22-9.84-.47-14.28c.75-4.44,2.22-8.42,4.41-11.94,2.19-3.52,4.59-6.26,7.2-8.23Z"/>
        <path class="cls-1" d="M673.87,680.27l47.38,6.36-14.31-13.24c-1.47-1.36-3.09-2.52-4.88-3.49-1.78-.97-3.5-1.67-5.14-2.1-1.64-.43-3.13-.62-4.45-.57-1.32,.05-2.25,.37-2.79,.96l-1.49,1.62-2.5-2.31,17.38-18.79,2.5,2.31-1.77,1.91c-.59,.64-.86,1.64-.8,3,.05,1.37,.36,2.88,.92,4.53,.56,1.65,1.36,3.35,2.39,5.07,1.04,1.73,2.26,3.25,3.68,4.56l40.16,37.14-1.97,2.13-74.9-9.89,29.81,27.71c1.47,1.36,3.11,2.51,4.91,3.45,1.81,.94,3.54,1.64,5.21,2.1,1.67,.45,3.16,.66,4.48,.6,1.32-.05,2.25-.37,2.79-.96l2.04-2.2,2.5,2.31-17.66,19.09-2.5-2.31,1.49-1.61c.54-.59,.79-1.56,.74-2.93-.05-1.36-.37-2.89-.96-4.56-.58-1.67-1.39-3.38-2.43-5.11-1.04-1.73-2.26-3.25-3.68-4.56l-31.79-29.4c-1.71-1.58-3.37-2.27-4.96-2.07-1.6,.2-2.87,.82-3.82,1.85l-3.19,3.45-2.5-2.31,20.1-21.73Z"/>
      </g>
    </g>
  </g>
</svg>